<?xml version="1.0" encoding="utf-8"?>
<!-- Generator: Adobe Illustrator 18.0.0, SVG Export Plug-In . SVG Version: 6.00 Build 0)  -->
<!DOCTYPE svg PUBLIC "-//W3C//DTD SVG 1.1//EN" "http://www.w3.org/Graphics/SVG/1.1/DTD/svg11.dtd">
<svg version="1.1" id="Layer_1" xmlns="http://www.w3.org/2000/svg" xmlns:xlink="http://www.w3.org/1999/xlink" x="0px" y="0px"
	 viewBox="0 0 218 79" enable-background="new 0 0 218 79" xml:space="preserve">
<g>
	<g>
		<g>
			<path fill="#FF3E2F" d="M171,47.5h-11.1v-6h9.4v-4.3h-9.4v-5.8H171V27h-15.7v24.8H171V47.5z M122.5,42.5h4.6
				c4.9,0,7.9-3.5,7.9-7.7c0-4.2-3-7.7-7.9-7.7h-9.3v24.8h4.7V42.5z M122.5,31.3h4.4c2.1,0,3.5,1.4,3.5,3.4s-1.3,3.4-3.5,3.4h-4.4
				V31.3z M112.4,27h-4.7v24.8h4.7V27z M152,47.5h-9.9V27h-4.7v24.8H152V47.5z M93.6,51.8h4.7V31.3h6.2V27H87.3v4.3h6.2V51.8z
				 M30.7,37.3l4.6,9.4h3.2l4.6-9.4v14.4h4.7V27h-4.6l-6.2,13.4L30.6,27H26v24.8h4.7V37.3z M89.2,47.5h-9.9V27h-4.7v24.8h14.5V47.5z
				 M0,0v79h218V0H0z M214.1,75H3.9V4h210.2V75z M61.2,52c4.9,0,8.8-3.4,8.8-8.7V27h-4.6v16.1c0,2.9-1.6,4.6-4.2,4.6
				c-2.5,0-4.1-1.7-4.1-4.6V27h-4.7v16.3C52.4,48.5,56.3,52,61.2,52z M178.4,51.8l4.6-8.6l4.6,8.6h5.3l-7.5-12.7l7-12.1h-5.3l-4.2,8
				l-4.2-8h-5.3l7,12.1l-7.4,12.7H178.4z"/>
		</g>
	</g>
</g>
</svg>
